<svg xmlns="http://www.w3.org/2000/svg" xmlns:xlink="http://www.w3.org/1999/xlink" width="1920" zoomAndPan="magnify" viewBox="0 0 1440 809.999993" height="1080" preserveAspectRatio="xMidYMid meet" version="1.0"><defs><g/><clipPath id="6b9f35d6d8"><path d="M 418.332031 260.855469 L 1021.9375 260.855469 L 1021.9375 549.144531 L 418.332031 549.144531 Z M 418.332031 260.855469 " clip-rule="nonzero"/></clipPath><clipPath id="9a0a5b93e8"><path d="M 455.832031 260.855469 L 984.164062 260.855469 C 1004.875 260.855469 1021.664062 277.644531 1021.664062 298.355469 L 1021.664062 511.644531 C 1021.664062 532.355469 1004.875 549.144531 984.164062 549.144531 L 455.832031 549.144531 C 435.125 549.144531 418.332031 532.355469 418.332031 511.644531 L 418.332031 298.355469 C 418.332031 277.644531 435.125 260.855469 455.832031 260.855469 Z M 455.832031 260.855469 " clip-rule="nonzero"/></clipPath><clipPath id="56c7bedc5e"><path d="M 418.339844 260.855469 L 1021.335938 260.855469 L 1021.335938 548.855469 L 418.339844 548.855469 Z M 418.339844 260.855469 " clip-rule="nonzero"/></clipPath><clipPath id="e2ca8bfdb6"><path d="M 455.839844 260.855469 L 984.15625 260.855469 C 1004.867188 260.855469 1021.65625 277.644531 1021.65625 298.355469 L 1021.65625 511.636719 C 1021.65625 532.347656 1004.867188 549.136719 984.15625 549.136719 L 455.839844 549.136719 C 435.128906 549.136719 418.339844 532.347656 418.339844 511.636719 L 418.339844 298.355469 C 418.339844 277.644531 435.128906 260.855469 455.839844 260.855469 Z M 455.839844 260.855469 " clip-rule="nonzero"/></clipPath></defs><g clip-path="url(#6b9f35d6d8)"><g clip-path="url(#9a0a5b93e8)"><path fill="#9ab19a" d="M 418.332031 260.855469 L 1021.9375 260.855469 L 1021.9375 549.144531 L 418.332031 549.144531 Z M 418.332031 260.855469 " fill-opacity="1" fill-rule="nonzero"/></g></g><g clip-path="url(#56c7bedc5e)"><g clip-path="url(#e2ca8bfdb6)"><path stroke-linecap="butt" transform="matrix(0.75, 0, 0, 0.75, 418.339137, 260.856012)" fill="none" stroke-linejoin="miter" d="M 50.000941 -0.000723902 L 754.422807 -0.000723902 C 782.03739 -0.000723902 804.422806 22.384692 804.422806 49.999275 L 804.422806 334.374272 C 804.422806 361.988854 782.03739 384.374271 754.422807 384.374271 L 50.000941 384.374271 C 22.386358 384.374271 0.000942098 361.988854 0.000942098 334.374272 L 0.000942098 49.999275 C 0.000942098 22.384692 22.386358 -0.000723902 50.000941 -0.000723902 Z M 50.000941 -0.000723902 " stroke="#fefdfa" stroke-width="76" stroke-opacity="1" stroke-miterlimit="4"/></g></g><g fill="#fefdfa" fill-opacity="1"><g transform="translate(538.556627, 455.106002)"><g><path d="M 76.320312 -99.792969 C 68.6875 -99.792969 64.800781 -95.328125 65.375 -87.121094 C 66.382812 -73.585938 67.105469 -59.617188 67.535156 -43.921875 L 67.246094 -43.921875 L 44.785156 -90.71875 C 41.761719 -97.054688 37.296875 -99.792969 30.382812 -99.792969 L 23.039062 -99.792969 C 15.121094 -99.792969 10.800781 -95.472656 10.945312 -87.550781 C 11.089844 -62.351562 11.089844 -37.441406 10.945312 -12.238281 C 10.800781 -4.320312 14.976562 0 22.464844 0 C 29.953125 0 33.839844 -4.464844 33.40625 -12.671875 C 32.257812 -29.953125 31.535156 -46.367188 31.105469 -66.816406 L 31.390625 -66.816406 L 59.183594 -9.070312 C 62.207031 -2.734375 66.671875 0 73.585938 0 L 75.742188 0 C 83.664062 0 87.984375 -4.320312 87.839844 -12.238281 C 87.695312 -37.441406 87.695312 -62.351562 87.839844 -87.550781 C 87.984375 -95.472656 83.953125 -99.792969 76.320312 -99.792969 Z M 76.320312 -99.792969 "/></g></g></g><g fill="#fefdfa" fill-opacity="1"><g transform="translate(637.340581, 455.106002)"><g><path d="M 37.726562 -19.152344 L 37.726562 -39.742188 C 43.777344 -39.601562 49.824219 -39.601562 55.585938 -39.457031 C 63.503906 -39.457031 67.824219 -42.910156 67.824219 -49.246094 C 67.824219 -55.441406 63.503906 -58.894531 55.585938 -58.894531 C 49.824219 -58.753906 43.777344 -58.753906 37.726562 -58.609375 L 37.726562 -80.640625 C 45.648438 -80.496094 53.710938 -80.496094 61.34375 -80.351562 C 69.265625 -80.351562 73.585938 -83.808594 73.585938 -90.144531 C 73.585938 -96.335938 69.265625 -99.792969 61.34375 -99.792969 L 23.039062 -99.792969 C 15.121094 -99.792969 10.800781 -95.472656 10.945312 -87.550781 C 10.945312 -75.023438 11.089844 -62.496094 11.089844 -49.96875 C 11.089844 -37.441406 10.945312 -24.910156 10.945312 -12.238281 C 10.800781 -4.320312 15.121094 0 23.039062 0 L 62.785156 0 C 70.703125 0 75.023438 -3.457031 75.023438 -9.792969 C 75.023438 -15.984375 70.703125 -19.441406 62.785156 -19.441406 C 54.71875 -19.296875 46.222656 -19.296875 37.726562 -19.152344 Z M 37.726562 -19.152344 "/></g></g></g><g fill="#fefdfa" fill-opacity="1"><g transform="translate(718.70054, 455.106002)"><g><path d="M 21.457031 0 L 24.191406 0 C 32.113281 0 36.289062 -4.609375 36.433594 -13.105469 C 36.863281 -32.542969 39.601562 -38.734375 45.9375 -38.734375 C 52.703125 -38.734375 57.023438 -31.96875 58.894531 -12.671875 C 59.761719 -4.320312 63.792969 0 71.566406 0 L 76.894531 0 C 85.105469 0 89.28125 -4.753906 88.558594 -12.816406 L 88.273438 -16.992188 C 84.960938 -37.007812 79.921875 -49.535156 70.128906 -54.71875 L 70.128906 -55.296875 C 79.921875 -60.769531 84.816406 -69.121094 88.273438 -86.976562 C 89.28125 -95.039062 84.960938 -99.648438 76.753906 -99.648438 L 73.007812 -99.648438 C 65.089844 -99.648438 61.054688 -95.039062 60.910156 -86.398438 C 60.480469 -66.816406 57.167969 -61.34375 51.265625 -61.34375 C 44.929688 -61.34375 43.054688 -67.105469 40.320312 -87.265625 C 39.3125 -95.472656 34.992188 -99.648438 27.359375 -99.648438 L 21.601562 -99.648438 C 13.390625 -99.648438 9.070312 -95.039062 10.078125 -86.976562 C 12.382812 -68.976562 18.144531 -61.054688 26.929688 -55.296875 L 26.929688 -54.71875 C 17.710938 -49.679688 11.953125 -37.441406 10.078125 -16.992188 L 9.792969 -12.816406 C 9.070312 -4.753906 13.246094 0 21.457031 0 Z M 21.457031 0 "/></g></g></g><g fill="#fefdfa" fill-opacity="1"><g transform="translate(817.052478, 455.106002)"><g><path d="M 80.785156 -90.144531 C 80.785156 -96.480469 76.464844 -99.792969 68.542969 -99.792969 L 15.839844 -99.792969 C 7.921875 -99.792969 3.601562 -96.335938 3.601562 -90.144531 C 3.601562 -83.953125 7.921875 -80.351562 15.984375 -80.351562 C 20.304688 -80.496094 24.480469 -80.496094 28.511719 -80.496094 C 28.511719 -70.414062 28.65625 -60.191406 28.65625 -49.96875 C 28.65625 -37.296875 28.511719 -24.769531 28.367188 -12.238281 C 28.367188 -4.320312 32.6875 0 40.609375 0 L 43.199219 0 C 51.121094 0 55.441406 -4.320312 55.296875 -12.238281 C 55.296875 -24.910156 55.296875 -37.296875 55.296875 -49.96875 L 55.296875 -80.496094 C 59.617188 -80.496094 63.792969 -80.496094 68.398438 -80.351562 C 76.464844 -80.351562 80.785156 -83.953125 80.785156 -90.144531 Z M 80.785156 -90.144531 "/></g></g></g></svg>